<?xml version="1.0" encoding="UTF-8"?>
<svg width="152px" height="29px" viewBox="0 0 152 29" version="1.1" xmlns="http://www.w3.org/2000/svg" xmlns:xlink="http://www.w3.org/1999/xlink">
    <!-- Generator: Sketch 55.1 (78136) - https://sketchapp.com -->
    <title>Group</title>
    <desc>Created with Sketch.</desc>
    <defs>
        <linearGradient x1="50%" y1="0%" x2="50%" y2="100%" id="linearGradient-1">
            <stop stop-color="#009A17" offset="0%"></stop>
            <stop stop-color="#009A17" offset="100%"></stop>
        </linearGradient>
    </defs>
    <g id="Page-1" stroke="none" stroke-width="1" fill="none" fill-rule="evenodd">
        <g id="help.megagroup.ru-mainpage" transform="translate(-730.000000, -28.000000)">
            <g id="Group" transform="translate(729.000000, 28.000000)">
                <path d="M9.273,0.12 C7.3,-0.406 5.293,0.845 4.883,2.858 L3.832,8 L13,8 L13,8.002 L13.15,8 L14.474,8.002 C15.664,8.034 16.524,8.472 16.734,9.862 L17.394,16.023 C17.522,17.225 17.844,17.266 18.498,16.023 C19.152,14.78 21.629,9.861 21.629,9.861 C22.174,8.905 22.865,8.395 23.637,8.161 L23.775,7.483 C24.1579291,5.62984735 23.0316966,3.79895257 21.205,3.305 L9.273,0.121 L9.273,0.12 Z M10.721,9 L3.628,9 L3.424,10 L10.304,10 L10.314,9.952 C10.396,9.564 10.539,9.252 10.721,9 Z M3.016,12 L3.22,11 L10.094,11 L9.884,12 L3.016,12 Z M9.675,13 L2.812,13 L2.608,14 L9.466,14 L9.675,13 Z M2.2,16 L2.404,15 L9.256,15 L9,16.224 L9,16 L2.2,16 Z M8.838,17 L1.995,17 L1.69,18.5 L8.524,18.5 L8.839,17 L8.838,17 Z M1.073,21.517 L1.18,21 L9,21 L12.139,20.996 L13.741,12.691 C13.837,12.162 14.174,12.146 14.261,12.691 L15.007,19.391 C15.15,20.369 15.554,21 17,21 C17.064,21 17.316,20.999 17.376,20.996 C18.66,20.943 19.112,20.324 19.647,19.392 L22.407,14.185 L19.967,26.142 C19.555,28.155 17.549,29.406 15.576,28.88 L3.643,25.695 C1.81630345,25.2010474 0.690070896,23.3701526 1.073,21.517 Z" id="Shape" fill="url(#linearGradient-1)"></path>
                <path d="M47.91,12.066 C48.054,11.813 48.18,11.632 48.271,11.632 C48.343,11.632 48.398,11.705 48.398,11.849 C48.398,11.904 48.398,11.958 48.379,12.03 L46.409,20.795 L49.663,20.795 L51.976,9.952 C52.012,9.789 52.03,9.627 52.03,9.464 C52.03,8.669 51.398,8 49.663,8 C48.416,8 47.277,8.434 46.463,9.861 L42.325,17.163 C42.199,17.398 42.036,17.687 41.892,17.687 C41.747,17.687 41.675,17.397 41.639,17.163 L40.554,9.861 C40.337,8.416 39.416,8 38.151,8 C37.193,8 35.675,8.253 35.313,9.952 L33,20.795 L36.253,20.795 L38.024,12.03 C38.042,11.94 38.114,11.633 38.295,11.633 C38.404,11.633 38.44,11.849 38.475,12.066 L39.525,19.331 C39.669,20.307 39.868,20.94 41.313,20.94 C42.741,20.94 43.211,20.307 43.771,19.331 L47.91,12.066 L47.91,12.066 Z M60.895,21 L61.328,18.976 L56.666,18.976 C55.455,18.976 55.057,18.578 55.057,17.837 C55.057,17.639 55.154,16.982 55.207,16.729 L60.611,16.729 C61.786,16.729 62.292,16.187 62.527,15.102 C62.635,14.614 62.707,14.162 62.707,13.783 C62.707,11.524 60.991,10.892 58.298,10.892 C54.575,10.892 53.437,11.398 52.569,15.211 C52.37,16.078 52.166,17.421 52.166,18.072 C52.166,20.06 53.16,21 55.473,21 L60.895,21 L60.895,21 Z M55.623,14.777 C55.931,13.367 56.581,12.916 58.045,12.916 C58.858,12.916 59.816,13.169 59.816,13.946 C59.816,14.018 59.798,14.108 59.78,14.199 C59.726,14.434 59.635,14.777 59.13,14.777 L55.623,14.777 L55.623,14.777 Z M68.51,11 C65.257,11 64.19,12.536 63.576,15.428 C63.45,16.006 63.317,16.988 63.317,17.512 C63.317,19.572 64.13,21 66.588,21 L69.281,21 C68.901,21.94 68.125,22.21 67.203,22.21 L62.883,22.21 L62.45,24.2 L67.257,24.2 C70.329,24.2 71.63,23.133 72.263,20.188 L73.823,12.808 C73.859,12.646 73.877,12.501 73.877,12.356 C73.877,11.579 73.389,11.001 72.395,11.001 L68.51,11.001 L68.51,11 Z M69.715,18.922 L67.636,18.922 C66.516,18.922 66.209,18.307 66.209,17.494 C66.209,17.096 66.359,16.241 66.449,15.789 C66.775,14.307 67.209,13.079 68.908,13.079 L70.227,13.079 C70.661,13.079 70.841,13.187 70.841,13.512 C70.841,13.602 70.823,13.692 70.805,13.802 L69.715,18.922 Z M76.388,11 L75.955,13.024 L80.798,13.024 C81.448,13.024 81.81,13.314 81.81,13.855 C81.81,13.964 81.792,14.055 81.774,14.181 L81.684,14.596 L77.328,14.596 C75.611,14.596 74.618,15.319 74.31,17.145 C74.256,17.506 74.141,18.343 74.141,18.651 C74.141,20.078 74.919,21 76.328,21 L81.334,21 C82.69,21 83.286,20.367 83.539,19.193 L84.611,14.036 C84.6595308,13.7923225 84.684,13.5444632 84.684,13.296 C84.684,11.994 83.907,11 82.298,11 L76.388,11 Z M81.268,16.548 L80.882,18.416 C80.774,18.867 80.557,19.048 80.105,19.048 L77.702,19.048 C77.25,19.048 77.033,18.795 77.033,18.38 C77.033,18.235 77.147,17.542 77.202,17.343 C77.382,16.693 77.708,16.548 78.25,16.548 L81.268,16.548 Z M91.852,21 C91.437,22.337 90.316,22.88 89.033,22.88 L85.04,22.88 L84.787,24.108 L88.781,24.108 C91.961,24.108 92.991,22.879 93.588,20.078 L95.167,12.663 C95.203,12.5 95.221,12.355 95.221,12.229 C95.221,11.307 94.408,11 93.088,11 L90.865,11 C87.522,11 86.51,12.627 85.877,15.608 C85.733,16.313 85.642,16.964 85.642,17.542 C85.642,19.458 86.486,21 88.926,21 L91.853,21 L91.852,21 Z M92.142,19.771 L89.304,19.771 C87.678,19.771 87.232,18.735 87.232,17.561 C87.232,17.072 87.322,16.476 87.467,15.789 C87.937,13.53 88.605,12.229 90.901,12.229 L93.051,12.229 C93.449,12.229 93.611,12.374 93.611,12.663 C93.611,12.735 93.611,12.807 93.593,12.879 L92.142,19.771 L92.142,19.771 Z M95.467,21 L96.985,21 L98.292,14.831 C98.672,13.078 99.467,12.229 101.129,12.229 L101.907,12.229 L102.16,11 L101.111,11 C98.563,11 97.352,12.084 96.846,14.452 L95.466,21 L95.467,21 Z M107.744,10.892 C104.31,10.892 102.678,12.38 101.901,15.994 C101.770143,16.5691931 101.703403,17.1571113 101.702,17.747 C101.702,20.114 103.13,21.108 105.949,21.108 C109.383,21.108 110.955,19.988 111.732,16.355 C111.876,15.705 112.009,14.705 112.009,14.199 C112.009,11.849 110.563,10.892 107.744,10.892 L107.744,10.892 Z M103.491,16.175 C104.069,13.464 105.232,12.12 107.672,12.12 C109.569,12.12 110.419,12.68 110.419,14.217 C110.419,14.651 110.268,15.578 110.142,16.175 C109.563,18.885 108.479,19.879 106.039,19.879 C104.142,19.879 103.292,19.265 103.292,17.711 C103.292,17.277 103.364,16.771 103.491,16.175 Z M122.834,11 L121.316,11 L119.593,19.157 C119.485,19.645 119.268,19.771 118.907,19.771 L116.178,19.771 C115.039,19.771 114.623,19.247 114.623,18.398 C114.623,18.163 114.66,17.91 114.714,17.621 L116.111,11 L114.593,11 L113.142,17.892 C113.086542,18.1595951 113.056078,18.4317658 113.051,18.705 C113.051,20.205 114.117,21 115.889,21 L119.25,21 C120.479,21 120.84,20.44 121.057,19.428 L122.834,11 Z M124.292,21 L127.22,21 C130.473,21 131.539,19.337 132.25,15.934 C132.387558,15.3287743 132.460301,14.7106252 132.467,14.09 C132.467,12.175 131.545,11 129.16,11 L126.467,11 C125.346,11 124.804,11.416 124.569,12.5 L122.142,24.072 L123.642,24.072 L124.292,21 L124.292,21 Z M126.033,12.79 C126.123,12.355 126.358,12.229 126.72,12.229 L128.816,12.229 C130.407,12.229 130.876,12.916 130.876,14.036 C130.866454,14.6144711 130.794028,15.1901888 130.66,15.753 C130.148,18.253 129.515,19.771 127.22,19.771 L124.563,19.771 L126.033,12.789 L126.033,12.79 Z M135.082,21 L135.498,19.048 L133.853,19.048 L133.437,21.001 L135.082,21.001 L135.082,21 Z M136.834,21 L138.352,21 L139.66,14.831 C140.039,13.078 140.834,12.229 142.497,12.229 L143.274,12.229 L143.527,11 L142.479,11 C139.931,11 138.72,12.084 138.214,14.452 L136.834,21 Z M152.943,11 L151.425,11 L149.702,19.157 C149.593,19.645 149.376,19.771 149.015,19.771 L146.286,19.771 C145.148,19.771 144.732,19.247 144.732,18.398 C144.732,18.163 144.768,17.91 144.822,17.621 L146.22,11 L144.702,11 L143.25,17.892 C143.196,18.181 143.16,18.452 143.16,18.705 C143.16,20.205 144.226,21 145.997,21 L149.358,21 C150.587,21 150.949,20.44 151.166,19.428 L152.943,11 Z" id="Shape" fill="#323232"></path>
            </g>
        </g>
    </g>
</svg>